<svg xmlns="http://www.w3.org/2000/svg" viewBox="0 0 512 512">
  <defs>
    <linearGradient id="grad" x1="0%" y1="0%" x2="100%" y2="100%">
      <stop offset="0%" style="stop-color:#4f46e5;stop-opacity:1" />
      <stop offset="100%" style="stop-color:#7c3aed;stop-opacity:1" />
    </linearGradient>
  </defs>
  
  <!-- Background: Rounded Square -->
  <rect width="512" height="512" rx="120" fill="url(#grad)" />
  
  <!-- Icon: Whistle -->
  <path fill="white" d="M366.4 121.2c-5.7-16-16.7-29.6-31-38.2c-14.3-8.7-31.5-12.2-48.2-9.9c-29.6 4.1-53.5 25.1-62 53.6c-4.2 14.1-3.6 29.1 1.7 42.9L106.1 290.4c-9.4 9.4-9.4 24.6 0 33.9l0 0c9.4 9.4 24.6 9.4 33.9 0l120.9-120.9c13.7 5.3 28.7 5.8 42.9 1.7c18.5-5.3 33.2-18.1 40.5-35.3c3.7-8.6 5.1-18.1 4.1-27.5C347.1 138.9 366.4 121.2 366.4 121.2z M271.9 224c-26.5 0-48-21.5-48-48s21.5-48 48-48s48 21.5 48 48S298.4 224 271.9 224z"/>
  <!-- Cord loop -->
  <path fill="none" stroke="white" stroke-width="30" stroke-linecap="round" d="M290 80 C 350 40, 420 80, 440 140 C 460 220, 380 320, 200 420" opacity="0.8"/>
</svg>
